<svg id="Layer_1" enable-background="new 0 0 100 100" viewBox="0 0 100 100" xmlns="http://www.w3.org/2000/svg"><path d="m84.8042068 79.2969589c1.9593124 0 3.5479431-1.5753937 3.5479431-3.5479431v-69.7010784c.0000001-1.9593086-1.5886306-3.5479374-3.5479431-3.5479374h-60.5135154c-6.9767284.0264783-12.6295967 5.66611-12.6428375 12.6428385v69.7143173c0 6.9767294 5.666109 12.6428442 12.6428356 12.6428442h60.5135117c1.9593048 0 3.5479431-1.6018677 3.5479431-3.5479355 0-1.9593048-1.5886307-3.5744171-3.5479431-3.5744171h-.556015v-11.0806885zm-17.236618-53.0844478h-35.1351738c-1.9593086 0-3.5479374-1.575388-3.5479374-3.5479393 0-1.9328289 1.5886288-3.5479374 3.5479412-3.5479374h35.13517c1.9593124 0 3.5479431 1.6018677 3.5479431 3.5479374-.0000152 1.9725513-1.5886383 3.5479393-3.5479431 3.5479393zm9.5847244 64.1783657h-52.8616218c-3.0581093 0-5.5469589-2.4623718-5.5469589-5.5337219 0-3.0713577 2.4888496-5.5602036 5.5469589-5.5602036h52.8616219v11.0939255z"/></svg>